<svg width="86" height="74" viewBox="0 0 86 74" fill="none" xmlns="http://www.w3.org/2000/svg">
<g filter="url(#filter0_d_5203_28)">
<path d="M72.0022 14.1272C79.4527 21.5777 79.4483 33.6738 72.0022 41.1199L50.5755 62.5466C46.257 66.8651 39.2515 66.8651 34.933 62.5466L15.7572 43.3708L45.0051 14.1228C52.4556 6.67235 64.5517 6.67671 71.9978 14.1228L72.0022 14.1272Z" fill="url(#paint0_linear_5203_28)"/>
</g>
<g filter="url(#filter1_b_5203_28)">
<path d="M13.5007 14.1284C20.9512 6.67794 33.0473 6.6823 40.4935 14.1284L69.7414 43.3764L50.5656 62.5522C46.2471 66.8707 39.2415 66.8707 34.923 62.5522L13.4964 41.1255C6.04588 33.675 6.05025 21.5789 13.4964 14.1328L13.5007 14.1284Z" fill="url(#paint1_linear_5203_28)"/>
<path d="M14.2078 14.8355C21.2676 7.77572 32.7306 7.77978 39.7864 14.8355L68.3272 43.3764L49.8585 61.8451C45.9305 65.7731 39.5581 65.7731 35.6301 61.8451L14.2035 40.4184C7.14366 33.3586 7.14773 21.8956 14.2035 14.8399L14.2078 14.8355Z" stroke="url(#paint2_linear_5203_28)" stroke-width="2"/>
</g>
<defs>
<filter id="filter0_d_5203_28" x="11.7573" y="8.53662" width="69.8311" height="65.2488" filterUnits="userSpaceOnUse" color-interpolation-filters="sRGB">
<feFlood flood-opacity="0" result="BackgroundImageFix"/>
<feColorMatrix in="SourceAlpha" type="matrix" values="0 0 0 0 0 0 0 0 0 0 0 0 0 0 0 0 0 0 127 0" result="hardAlpha"/>
<feOffset dy="4"/>
<feGaussianBlur stdDeviation="2"/>
<feComposite in2="hardAlpha" operator="out"/>
<feColorMatrix type="matrix" values="0 0 0 0 0 0 0 0 0 0 0 0 0 0 0 0 0 0 0.25 0"/>
<feBlend mode="normal" in2="BackgroundImageFix" result="effect1_dropShadow_5203_28"/>
<feBlend mode="normal" in="SourceGraphic" in2="effect1_dropShadow_5203_28" result="shape"/>
</filter>
<filter id="filter1_b_5203_28" x="-10.0898" y="-9.45776" width="97.8311" height="93.2488" filterUnits="userSpaceOnUse" color-interpolation-filters="sRGB">
<feFlood flood-opacity="0" result="BackgroundImageFix"/>
<feGaussianBlur in="BackgroundImageFix" stdDeviation="9"/>
<feComposite in2="SourceAlpha" operator="in" result="effect1_backgroundBlur_5203_28"/>
<feBlend mode="normal" in="SourceGraphic" in2="effect1_backgroundBlur_5203_28" result="shape"/>
</filter>
<linearGradient id="paint0_linear_5203_28" x1="74.582" y1="13.6682" x2="28.2779" y2="56.2895" gradientUnits="userSpaceOnUse">
<stop stop-color="#81FF6D"/>
<stop offset="1" stop-color="#02FF2A"/>
</linearGradient>
<linearGradient id="paint1_linear_5203_28" x1="41.8553" y1="66.4361" x2="54.4692" y2="10.5717" gradientUnits="userSpaceOnUse">
<stop stop-color="white" stop-opacity="0.2"/>
<stop offset="1" stop-color="white" stop-opacity="0.49"/>
</linearGradient>
<linearGradient id="paint2_linear_5203_28" x1="5.26745" y1="29.0852" x2="60.9177" y2="18.3001" gradientUnits="userSpaceOnUse">
<stop stop-color="#00FF38"/>
<stop offset="1" stop-color="#00FF29" stop-opacity="0"/>
</linearGradient>
</defs>
</svg>
